<svg xmlns="http://www.w3.org/2000/svg" width="574" height="574" viewBox="0 0 574 574" version="1.1">
	<path d="M 273.346 71.608 C 245.451 77.467, 222.399 97.085, 212.934 123.018 C 205.038 144.652, 204.903 175.257, 212.559 207.802 C 215.333 219.594, 223.349 244.527, 228.354 256.930 L 231.755 265.359 228.855 271.823 C 227.260 275.379, 226.119 278.452, 226.320 278.653 C 226.521 278.854, 249.885 278.902, 278.241 278.759 L 329.798 278.500 326.901 272.119 L 324.004 265.737 327.097 259.454 C 332.906 247.655, 332.425 232.435, 325.900 221.556 C 324.232 218.775, 315.781 209.525, 307.119 201 C 290.436 184.580, 286.030 178.422, 285.739 171.116 C 285.589 167.356, 285.360 167.103, 280.151 164.944 C 274.022 162.403, 269.006 158.375, 266.126 153.680 C 263.822 149.924, 262.489 142.158, 263.479 138.263 C 264.159 135.589, 264.242 135.658, 266.058 140.419 C 268.111 145.800, 272.814 151.281, 277.500 153.754 C 279.331 154.720, 283.708 155.458, 288.732 155.648 C 293.260 155.819, 298.529 156.612, 300.441 157.411 C 306.323 159.869, 318.259 167.062, 323.111 171.073 C 325.865 173.349, 328.484 174.729, 329.611 174.498 C 330.650 174.285, 333.196 173.839, 335.268 173.506 C 339.202 172.876, 339.679 172.329, 346.292 160.845 L 348.972 156.191 344.014 153.009 C 335.265 147.395, 329.047 139.584, 322.229 125.648 C 313.077 106.939, 306.311 98.610, 294.520 91.539 C 291.231 89.567, 286.843 87.496, 284.770 86.938 L 281 85.923 281 78.520 C 281 74.449, 280.663 70.938, 280.250 70.717 C 279.837 70.496, 276.731 70.897, 273.346 71.608 M 216.490 290.750 C 216.877 291.712, 218.113 294.863, 219.236 297.750 L 221.278 303 277.898 303 L 334.518 303 336.759 296.750 C 337.992 293.313, 339 290.163, 339 289.750 C 339 289.337, 311.277 289, 277.393 289 C 219.118 289, 215.824 289.095, 216.490 290.750 M 209.585 318.746 C 208.163 323.015, 207 327.068, 207 327.753 C 207 328.737, 221.858 329, 277.441 329 C 316.184 329, 348.101 328.645, 348.370 328.211 C 348.638 327.777, 347.593 323.839, 346.048 319.461 L 343.238 311.500 277.703 311.243 L 212.169 310.986 209.585 318.746 M 143.394 361.299 C 144.978 362.457, 145.158 364.370, 145.065 379.049 C 144.975 393.177, 144.724 395.676, 143.289 396.750 C 141.913 397.779, 143.338 398, 151.341 398 C 161.999 398, 166.725 396.659, 169.369 392.883 C 172.677 388.160, 170.205 380.152, 164.922 378.475 C 162.958 377.852, 162.974 377.753, 165.448 375.280 C 168.821 371.906, 168.866 367.162, 165.553 364.050 C 162.713 361.382, 157.138 360.105, 148.059 360.044 C 142.538 360.006, 141.872 360.186, 143.394 361.299 M 188.250 361.080 C 189.807 361.987, 190 363.959, 190 379 C 190 394.041, 189.807 396.013, 188.250 396.920 C 186.997 397.650, 190.259 397.948, 199.750 397.970 C 211.709 397.997, 213.001 397.829, 213.014 396.250 C 213.021 395.288, 213.326 393.375, 213.690 392 C 214.343 389.538, 214.314 389.545, 211.827 392.425 C 209.658 394.938, 208.427 395.414, 203.107 395.799 L 196.911 396.247 197.206 388.373 L 197.500 380.500 200.821 380.181 C 202.683 380.003, 205.209 380.562, 206.571 381.454 C 208.993 383.042, 209 383.036, 209 379.323 C 209 376.427, 208.733 375.867, 207.800 376.800 C 207.140 377.460, 204.421 378, 201.758 378 L 196.916 378 197.208 370.250 L 197.500 362.500 201.273 362.188 C 203.348 362.017, 206.455 362.579, 208.177 363.438 C 212.145 365.418, 212 365.453, 212 362.500 L 212 360 199.250 360.030 C 190.099 360.052, 186.994 360.349, 188.250 361.080 M 233 362 C 234.822 363.822, 235 365.333, 235 379 C 235 392.667, 234.822 394.178, 233 396 L 231 398 237.571 398 C 243.545 398, 244 397.857, 242.571 396.429 C 241.275 395.132, 241 392.085, 241 379.036 C 241 362.064, 241.179 361.496, 246.154 362.709 C 250.336 363.730, 252 365.991, 252 370.655 C 252 375.771, 249.446 378.959, 245.250 379.079 C 243.738 379.122, 243.065 379.386, 243.756 379.664 C 244.446 379.943, 246.831 383.286, 249.055 387.095 C 253.859 395.321, 256.381 397.189, 263.307 397.652 C 267.784 397.952, 268.131 397.854, 265.824 396.941 C 262.463 395.612, 251.202 380.766, 253.079 380.140 C 259.034 378.155, 261.174 368.391, 256.597 364.091 C 253.525 361.206, 248.471 360.054, 238.750 360.024 L 231 360 233 362 M 281.794 378.015 C 282.087 395.992, 282.082 396.034, 279.794 396.953 C 278.063 397.647, 279.218 397.881, 284.500 397.906 C 289.721 397.931, 291.055 397.680, 289.750 396.920 C 288.235 396.037, 288 394.265, 288 383.714 L 288 371.528 301.263 384.764 C 308.558 392.044, 314.858 398, 315.263 398 C 315.669 398, 316 389.922, 316 380.050 C 316 364.009, 316.186 361.991, 317.750 361.080 C 319.061 360.316, 317.752 360.053, 312.527 360.030 C 305.936 360.002, 305.676 360.085, 307.777 361.557 C 309.854 363.011, 310 363.865, 310 374.557 C 310 380.851, 309.656 386, 309.236 386 C 308.815 386, 302.634 380.150, 295.500 373 C 288.366 365.850, 282.297 359.999, 282.014 359.999 C 281.731 359.998, 281.632 368.105, 281.794 378.015 M 350.226 362.750 C 349.692 364.262, 346.210 372.400, 342.487 380.834 C 337.718 391.637, 335.095 396.421, 333.609 397.021 C 332.057 397.648, 332.953 397.886, 337 397.921 C 340.025 397.948, 341.962 397.628, 341.305 397.210 C 339.907 396.321, 340.043 394.714, 341.895 390.250 C 343.226 387.039, 343.323 387, 349.970 387 L 356.697 387 358.366 391.250 C 359.933 395.238, 359.931 395.577, 358.327 396.750 C 356.909 397.787, 357.971 397.989, 364.559 397.937 C 369.942 397.894, 371.824 397.600, 370.402 397.025 C 369.248 396.558, 367.396 394.224, 366.287 391.838 C 359.996 378.300, 353 362.140, 353 361.147 C 353 358.966, 351.192 360.010, 350.226 362.750 M 386.286 361.250 C 387.717 362.322, 387.970 364.841, 388.065 378.949 C 388.165 393.641, 387.986 395.537, 386.397 396.699 C 384.903 397.791, 386.735 398, 397.809 398 C 409.700 398, 411.001 397.828, 411.014 396.250 C 411.021 395.288, 411.326 393.375, 411.690 392 C 412.343 389.538, 412.314 389.545, 409.827 392.425 C 407.662 394.933, 406.424 395.414, 401.151 395.795 L 395 396.240 395 379.949 C 395 366.193, 395.258 363.373, 396.655 361.829 C 398.243 360.074, 398.033 360, 391.464 360 C 385.764 360, 384.897 360.209, 386.286 361.250 M 152.558 362.775 C 152.251 363.082, 152 370.683, 152 379.667 L 152 396 154.453 396 C 160.694 396, 164.829 391.051, 163.530 385.135 C 162.818 381.895, 161.180 380.160, 157.104 378.331 C 155.522 377.621, 155.126 377.131, 156.095 377.081 C 160.536 376.855, 162.836 367.898, 159.250 364.796 C 157.285 363.096, 153.408 361.925, 152.558 362.775 M 347.245 376.789 C 344.133 384.814, 344.196 385, 350 385 C 353.246 385, 355 384.575, 355 383.789 C 355 382.151, 350.641 371, 350 371 C 349.719 371, 348.480 373.605, 347.245 376.789 M 209.878 412.082 C 208.601 415.062, 206.592 419.413, 205.414 421.750 C 203.374 425.797, 203.361 426, 205.136 426 C 206.469 426, 207 425.271, 207 423.440 C 207 421.092, 207.312 420.905, 210.750 421.190 C 213.762 421.439, 214.563 421.943, 214.820 423.750 C 215.083 425.606, 215.768 426, 218.725 426 C 222.071 426, 222.205 425.883, 220.739 424.250 C 219.875 423.288, 217.600 418.937, 215.684 414.582 L 212.201 406.663 209.878 412.082 M 226 407.938 C 226 408.454, 227.238 408.792, 228.750 408.688 L 231.500 408.500 231.500 417.252 C 231.500 425.920, 231.524 426.003, 234 426.003 C 236.476 426.003, 236.500 425.920, 236.500 417.252 L 236.500 408.500 239.750 408.754 C 241.537 408.893, 243 408.556, 243 408.004 C 243 407.411, 239.521 407, 234.500 407 C 229.825 407, 226 407.422, 226 407.938 M 250.500 416.540 L 250.500 426.080 256.920 425.790 C 261.358 425.590, 263.485 425.065, 263.807 424.091 C 264.153 423.043, 263.789 422.890, 262.386 423.493 C 261.349 423.940, 259.375 424.349, 258 424.403 C 255.791 424.489, 255.500 424.093, 255.500 421 C 255.500 417.651, 255.643 417.511, 258.817 417.763 C 260.858 417.925, 261.893 417.636, 261.508 417.013 C 261.164 416.456, 259.559 416, 257.941 416 C 255.242 416, 255 415.710, 255 412.469 C 255 408.387, 256.876 407.167, 260.564 408.847 C 262.547 409.751, 263 409.682, 263 408.479 C 263 407.332, 261.599 407, 256.750 407 L 250.500 407 250.500 416.540 M 273.500 416.500 L 273.500 426 279.750 426 C 284.592 426, 286 425.668, 286 424.525 C 286 423.354, 285.470 423.251, 283.435 424.025 C 278.034 426.078, 277.831 425.768, 278.179 415.998 L 278.500 406.995 276 406.998 C 273.509 407, 273.500 407.034, 273.500 416.500 M 294.500 416.500 C 294.500 425.967, 294.509 426, 297 426 C 299.491 426, 299.500 425.967, 299.500 416.500 C 299.500 407.033, 299.491 407, 297 407 C 294.509 407, 294.500 407.033, 294.500 416.500 M 310.500 416.540 L 310.500 426.080 316.920 425.790 C 321.358 425.590, 323.485 425.065, 323.807 424.091 C 324.152 423.046, 323.785 422.888, 322.386 423.482 C 321.349 423.923, 319.232 424.500, 317.682 424.765 C 314.954 425.232, 314.875 425.124, 315.182 421.373 C 315.465 417.925, 315.792 417.500, 318.161 417.500 C 319.625 417.500, 321.162 417.163, 321.578 416.750 C 321.993 416.337, 320.656 416, 318.606 416 C 314.911 416, 314.882 415.968, 315.190 412.250 C 315.492 408.593, 315.593 408.505, 319.250 408.720 C 321.313 408.841, 323 408.504, 323 407.970 C 323 407.437, 320.188 407, 316.750 407 L 310.500 407 310.500 416.540 M 332.845 408.750 C 334.179 411.300, 334.209 423.044, 332.886 424.638 C 331.976 425.734, 332.320 426, 334.650 426 L 337.545 426 337.233 417.583 C 336.922 409.162, 337.498 407.486, 340.332 408.574 C 343.415 409.757, 343.500 416, 340.433 416 C 338.432 416, 338.663 416.915, 341.824 421.500 C 343.755 424.302, 345.432 425.599, 347.422 425.829 L 350.264 426.158 346.792 421.829 C 343.391 417.589, 343.359 417.463, 345.221 415.689 C 349.627 411.492, 345.261 407.041, 336.715 407.015 C 332.473 407.002, 332.034 407.199, 332.845 408.750 M 209.630 416.250 C 208.715 419.665, 208.838 420, 211 420 C 212.100 420, 212.994 419.663, 212.986 419.250 C 212.952 417.338, 211.689 414, 211 414 C 210.578 414, 209.962 415.012, 209.630 416.250" stroke="none" fill="currentColor" fill-rule="evenodd"/>
</svg>