<svg xmlns="http://www.w3.org/2000/svg" viewBox="155 70 240 240" fill="#b45309">
  <path 
    d="M 273.346 71.608 C 245.451 77.467, 222.399 97.085, 212.934 123.018 C 205.038 144.652, 204.903 175.257, 212.559 207.802 C 215.333 219.594, 223.349 244.527, 228.354 256.930 L 231.755 265.359 228.855 271.823 C 227.260 275.379, 226.119 278.452, 226.320 278.653 C 226.521 278.854, 249.885 278.902, 278.241 278.759 L 329.798 278.500 326.901 272.119 L 324.004 265.737 327.097 259.454 C 332.906 247.655, 332.425 232.435, 325.900 221.556 C 324.232 218.775, 315.781 209.525, 307.119 201 C 290.436 184.580, 286.030 178.422, 285.739 171.116 C 285.589 167.356, 285.360 167.103, 280.151 164.944 C 274.022 162.403, 269.006 158.375, 266.126 153.680 C 263.822 149.924, 262.489 142.158, 263.479 138.263 C 264.159 135.589, 264.242 135.658, 266.058 140.419 C 268.111 145.800, 272.814 151.281, 277.500 153.754 C 279.331 154.720, 283.708 155.458, 288.732 155.648 C 293.260 155.819, 298.529 156.612, 300.441 157.411 C 306.323 159.869, 318.259 167.062, 323.111 171.073 C 325.865 173.349, 328.484 174.729, 329.611 174.498 C 330.650 174.285, 333.196 173.839, 335.268 173.506 C 339.202 172.876, 339.679 172.329, 346.292 160.845 L 348.972 156.191 344.014 153.009 C 335.265 147.395, 329.047 139.584, 322.229 125.648 C 313.077 106.939, 306.311 98.610, 294.520 91.539 C 291.231 89.567, 286.843 87.496, 284.770 86.938 L 281 85.923 281 78.520 C 281 74.449, 280.663 70.938, 280.250 70.717 C 279.837 70.496, 276.731 70.897, 273.346 71.608 M 216.490 290.750 C 216.877 291.712, 218.113 294.863, 219.236 297.750 L 221.278 303 277.898 303 L 334.518 303 336.759 296.750 C 337.992 293.313, 339 290.163, 339 289.750 C 339 289.337, 311.277 289, 277.393 289 C 219.118 289, 215.824 289.095, 216.490 290.750 M 209.585 318.746 C 208.163 323.015, 207 327.068, 207 327.753 C 207 328.737, 221.858 329, 277.441 329 C 316.184 329, 348.101 328.645, 348.370 328.211 C 348.638 327.777, 347.593 323.839, 346.048 319.461 L 343.238 311.500 277.703 311.243 L 212.169 310.986 209.585 318.746" 
    stroke="none" 
    fill-rule="evenodd"
  />
</svg>